<?xml version="1.0" encoding="UTF-8"?>
<svg id="Layer_1" xmlns="http://www.w3.org/2000/svg" version="1.1" viewBox="0 0 140 140">
  <!-- Generator: Adobe Illustrator 29.1.0, SVG Export Plug-In . SVG Version: 2.1.0 Build 142)  -->
  <defs>
    <style>
      .st0 {
        fill: #fff;
      }

      .st1 {
        fill: #76c893;
      }
    </style>
  </defs>
  <path class="st1" d="M140,110.6c0,3.4-2.7,6-5.9,6H5.9c-3.2.2-5.9-2.6-5.9-6V32.1c0-3.3,2.7-6,5.9-6h128c3.4,0,5.9,2.8,5.9,6v78.5h.2Z"/>
  <path class="st0" d="M138.7,28.4c-16.6,26.2-42.4,50.2-68.9,49.6-9.7-.2-20.9-3.1-30.4-10.9-7-5.9-14.1-15-16.8-28h-2.9c-4.3,0-6.9,3.9-6.4,7.5.2.8.3,1.8.5,2.8,2.1,12.7,9.4,27,21.7,36.3,9.6,7.2,21.4,11.9,34.4,11.9,23.3,0,48.3-15.1,70-54v-11.4c0-1.3-.5-2.8-1.3-3.7"/>
</svg>