<?xml version="1.0" encoding="utf-8"?>
<!-- Generator: Adobe Illustrator 21.0.2, SVG Export Plug-In . SVG Version: 6.00 Build 0)  -->
<svg version="1.1" id="Layer_1" xmlns="http://www.w3.org/2000/svg" xmlns:xlink="http://www.w3.org/1999/xlink" x="0px" y="0px"
	 viewBox="0 0 89.9 218.3" style="enable-background:new 0 0 89.9 218.3;" xml:space="preserve">
<style type="text/css">
	.st0{fill:#009A84;stroke:#009A84;stroke-width:3;stroke-miterlimit:10;}
	.st1{fill:none;stroke:#231F20;stroke-width:0.75;stroke-miterlimit:10;}
	.st2{fill:#FFFFFF;}
	.st3{fill:none;stroke:#A13349;stroke-miterlimit:10;}
</style>
<title>ssred</title>
<g id="Layer_2">
	<g id="Layer_1-2">
		<path class="st0" d="M13.5,1.5h62.9c6.6,0,12,5.4,12,12v191.3c0,6.6-5.4,12-12,12H13.5c-6.6,0-12-5.4-12-12V13.5
			C1.5,6.9,6.9,1.5,13.5,1.5z"/>
		<path class="st1" d="M45.3,86.7"/>
		<path class="st2" d="M20.9,28.6c0.5,3.3,0.6,6.6,0.5,9.9c-0.1,1.9,2.9,1.9,3,0c0.1-3.6-0.1-7.2-0.6-10.7
			C23.5,25.9,20.6,26.7,20.9,28.6z"/>
		<path class="st2" d="M30.6,21c0,4.9,0.2,9.8,0.1,14.6c-0.2,5.8-2.7,8.5-5.9,13.1c-4.7,6.8-2.6,15.1-3.2,22.8c-0.1,1.9,2.9,1.9,3,0
			c0.3-4.4-0.2-8.7,0.1-13.1c0.4-5.8,3.9-8.7,6.7-13.2c4.1-6.7,2.3-16.7,2.2-24.1c0-0.8-0.7-1.5-1.5-1.5
			C31.3,19.6,30.6,20.2,30.6,21C30.6,21,30.6,21,30.6,21z"/>
		<path class="st2" d="M30.4,54.5c0.2,5.6,0.2,11.2,0.1,16.8c0,0.8,0.7,1.5,1.5,1.5s1.5-0.7,1.5-1.5c0.1-5.6,0-11.2-0.1-16.8
			C33.3,52.6,30.3,52.6,30.4,54.5z"/>
		<path class="st2" d="M43.1,30c7-0.7,14-0.8,21-0.2c1.9,0.1,1.9-2.9,0-3c-7-0.6-14-0.5-21,0.2C41.2,27.2,41.2,30.2,43.1,30z"/>
		<path class="st2" d="M43,44.9l20.5-0.4c0.8,0,1.5-0.7,1.5-1.5s-0.7-1.5-1.5-1.5L43,41.9c-0.8,0-1.5,0.7-1.5,1.5S42.2,44.9,43,44.9
			z"/>
		<path class="st2" d="M42.7,51.7c4.7-0.3,9.3-0.6,14-0.7c1.7,0,5.1-0.7,5.8,0.6s0,5.8,0,7.2c-0.1,2.1-0.2,4.2-0.5,6.4
			c-0.1,1.3,0.1,2.5-1.1,3.3c-0.6,0.4-2.6,0.1-3.3,0.1L42.7,69c-1.9,0.1-1.9,3.1,0,3l11.5-0.4c2.4-0.1,6.2,0.5,8.5-0.6
			c3.3-1.7,2.6-8.4,2.7-11.5s1.7-10.1-2-11.5c-2.3-0.9-6.8,0-9.2,0.1c-3.8,0.1-7.7,0.3-11.5,0.6C40.8,48.9,40.8,51.9,42.7,51.7z"/>
		<path class="st2" d="M43.1,58.7c6.4-0.5,12.7-0.7,19.1-0.5c0.8,0,1.5-0.7,1.5-1.5s-0.7-1.5-1.5-1.5c-6.4-0.2-12.7,0-19.1,0.5
			C41.2,55.8,41.2,58.8,43.1,58.7z"/>
		<path class="st2" d="M43,65h19c0.8,0,1.5-0.7,1.5-1.5c0-0.8-0.7-1.5-1.5-1.5H43c-0.8,0-1.5,0.7-1.5,1.5C41.5,64.3,42.2,65,43,65z"
			/>
		<path class="st2" d="M52.2,36.2l0.1,13.3c0,0.8,0.7,1.5,1.5,1.5s1.5-0.7,1.5-1.5l-0.1-13.3c0-0.8-0.7-1.5-1.5-1.5
			S52.2,35.4,52.2,36.2z"/>
		<path class="st2" d="M22,169.2c3.5,0.2,8.5,1.1,11.7-0.6c2.3-1.3,2.5-3.7,2.6-6.1c0.1-2.6,0.6-7.1-1.4-9.2c-1.7-1.8-4.8-1.3-7.1-1
			c-2.7,0.3-6,0.7-7.3,3.5c-1.6,3.3-0.9,8.6-1.1,12.2c-0.4,9.6,0,19.5-0.1,29.1c0,0.8,0.7,1.5,1.5,1.5s1.5-0.7,1.5-1.5
			c0.1-10-0.4-20.1,0.1-30.1c0.1-2.4-0.3-5.6,0.4-7.9c0.9-3.2,6.5-5.7,9.4-3.6c2,1.5,1.3,9-0.7,10.6c-1.6,1.3-7.4,0.2-9.6,0.1
			C20.1,166.1,20.1,169.1,22,169.2z"/>
		<path class="st2" d="M41.2,153.1l27.7-0.9c1.9-0.1,1.9-3.1,0-3l-27.7,0.9C39.3,150.2,39.3,153.2,41.2,153.1z"/>
		<path class="st2" d="M53.7,147.7c0.2,0.9,0.3,1.8,0.1,2.7c-0.2,0.8,0.2,1.6,1,1.9c0.8,0.2,1.6-0.2,1.8-0.9c0,0,0,0,0-0.1
			c0.2-1.4,0.2-2.9-0.1-4.3c-0.2-0.8-1-1.2-1.8-1.1C54,146.1,53.5,146.9,53.7,147.7L53.7,147.7z"/>
		<path class="st2" d="M43.1,198c-0.2-5.6-0.3-11.2,0-16.7c0.1-2.4-0.4-7.2,1.9-8.6c1.8-1,6.9-0.4,8.8-0.5c2.6-0.2,5.2-0.3,7.8-0.2
			c4.8,0.4,5,3.3,5.1,7.4l0.7,17.9c0.1,1.9,3.1,1.9,3,0L70,184.1c-0.1-3.3,0.4-7.3-0.6-10.5c-1.7-5.6-9.1-4.7-13.6-4.5
			c-3.8,0.2-9.2-0.5-12.8,0.7c-1.3,0.4-1.5,0.7-1.9,1.9c-1.2,3.5-0.8,8.6-0.9,12.2c-0.2,4.6-0.1,9.3,0.1,14
			C40.2,199.9,43.2,199.9,43.1,198z"/>
		<path class="st2" d="M53.8,171.8c0,1.6,0,3.3-0.1,4.9c0,1.9,3,1.8,3-0.1v-5.1c0-0.8-0.7-1.5-1.5-1.5c0,0-0.1,0-0.1,0
			C54.3,170.1,53.7,170.9,53.8,171.8z"/>
		<path class="st2" d="M50.4,197.8v-11.1c0-1.4-0.4-3.9,0.2-5.3c0.9-2.2,2.8-1.7,4.7-1.8c2.3-0.1,3.9-0.9,5.1,1.9
			c0.6,1.3,0.3,3.7,0.3,5.2c0.2,3.7,0.3,7.4,0.3,11.1c0,0.8,0.7,1.5,1.5,1.5s1.5-0.7,1.5-1.5c0-5.7,0.3-11.9-0.7-17.5
			c-0.9-4.4-4.2-3.9-8-3.7c-3.4,0.2-6.6-0.5-7.5,3.3c-1.3,5.5-0.3,12.2-0.3,17.8c0,0.8,0.7,1.5,1.5,1.5c0.7,0.1,1.3-0.5,1.4-1.2
			C50.4,197.9,50.4,197.9,50.4,197.8z"/>
		<path class="st2" d="M54.2,185.4v12.3c0,0.8,0.7,1.5,1.5,1.5s1.5-0.7,1.5-1.5v-12.3c0-0.8-0.7-1.5-1.5-1.5S54.2,184.6,54.2,185.4z
			"/>
		<path class="st2" d="M30.9,87.8c11.8-0.4,23.6-0.5,35.4-0.4c0.8,0,1.5-0.7,1.5-1.5s-0.7-1.5-1.5-1.5c-11.8-0.1-23.6,0-35.4,0.4
			C28.9,84.9,28.9,87.9,30.9,87.8z"/>
		<path class="st2" d="M25.2,93.4c13.7-0.7,27.4-0.9,41.1-0.7c0.8,0,1.5-0.7,1.5-1.5s-0.7-1.5-1.5-1.5c-13.7-0.2-27.4,0-41.1,0.7
			C23.3,90.5,23.3,93.5,25.2,93.4z"/>
		<path class="st2" d="M30.2,100c10.5-0.6,21-0.7,31.5-0.3c1.9,0.1,1.9-2.9,0-3c-10.5-0.4-21-0.2-31.5,0.3
			C28.3,97.1,28.3,100.1,30.2,100z"/>
		<path class="st2" d="M41.8,98.3c-0.8,2.2-0.7,2.2-3.1,2.8c-1.6,0.2-3.2,0.3-4.8,0.3l-11.3,0.8c-1.9,0.1-1.9,3.1,0,3
			c5.8-0.4,12-0.2,17.8-1.2c3.2-0.5,3.3-2.1,4.4-4.8C45.4,97.3,42.5,96.6,41.8,98.3z"/>
		<path class="st2" d="M47.2,98.8c0.2,3.1,0.6,5.2,3.9,5.5c5.8,0.4,11.6,0.2,17.4,0.3c0.8,0,1.5-0.7,1.5-1.5s-0.7-1.5-1.5-1.5
			l-9.8-0.2l-4.5-0.1c-2.3,0-3.8,0.2-4-2.5C50,96.9,47,96.9,47.2,98.8z"/>
		<path class="st2" d="M23.7,85.1c1.5,0.3,2.9,0.9,4.2,1.7c1.2,0.9,1.2,2.4,1.2,3.8c0.1,1.9,3.1,1.9,3,0s-0.3-4.1-1.8-5.6
			c-1.7-1.4-3.7-2.4-5.8-2.8c-0.8-0.2-1.6,0.2-1.9,1.1S22.9,84.9,23.7,85.1z"/>
		<path class="st2" d="M24,133.4c0.1-5.5,0-11.1,0.2-16.6c0.1-2.2-0.3-2.5,1.9-3.7c1.9-1.1,3.2-1,5.3-1.1l9-0.3c1.9-0.1,1.9-3.1,0-3
			c-4.5,0.2-9.5-0.2-14,0.5c-1.8,0.1-3.4,1.1-4.4,2.6c-1.2,2.1-0.8,5.3-0.8,7.6l-0.2,14c0,0.8,0.7,1.5,1.5,1.5
			C23.3,134.9,24,134.3,24,133.4C24,133.4,24,133.4,24,133.4z"/>
		<path class="st2" d="M69.4,133.5c0.1-4.9,0.1-9.7,0.2-14.6c0-2.3,0.9-6.5-0.4-8.4c-1-1.6-2.4-1.4-4.2-1.5
			c-4.8-0.3-9.6-0.3-14.4-0.1c-1.9,0.1-1.9,3.1,0,3c3-0.1,6-0.2,9-0.1c3.7,0.1,6.5-0.6,7,3.6c0.8,5.8-0.2,12.3-0.3,18.1
			c0,0.8,0.7,1.5,1.5,1.5C68.6,135,69.3,134.3,69.4,133.5z"/>
		<path class="st2" d="M44.5,36.2c4.1,1.5,9.3,0.9,13.5,0.5c2.6-0.2,5.7-0.3,6.9-3.1c1.3-3,0.8-7.6,0-10.6s-2.3-4.2-5.2-4.8
			c-4.3-0.7-8.7-0.6-12.9,0.3c-2.6,0.5-4.3,1.2-5.1,3.7c-1.1,3.6-1.1,10.8,2.2,13.5c1.5,1.2,3.6-0.9,2.1-2.1c-2-1.6-1.9-5.7-1.8-8
			s0.3-3.5,2.7-4.1c3-0.7,6.2-0.9,9.3-0.6c2.8,0.1,5.4,0.3,6,3.5c0.4,2.2,1.2,6.6-0.6,8.2c-1.8,1.6-5.5,1.4-7.8,1.4
			c-2.7,0.1-5.9,0.3-8.5-0.7C43.5,32.7,42.7,35.6,44.5,36.2z"/>
		<path class="st2" d="M30.5,123.8c9.7-0.3,19.5-0.5,29.2-0.6c0.8,0,1.5-0.7,1.5-1.5s-0.7-1.5-1.5-1.5c-9.7,0.1-19.5,0.3-29.2,0.6
			C28.6,120.9,28.6,123.9,30.5,123.8z"/>
		<path class="st2" d="M30.8,129.3c9.8-0.4,19.6-0.5,29.3-0.3c0.8,0,1.5-0.7,1.5-1.5s-0.7-1.5-1.5-1.5c-9.8-0.2-19.6-0.1-29.4,0.3
			C28.8,126.4,28.8,129.4,30.8,129.3z"/>
		<path class="st2" d="M23.3,97.8c-0.3-1.2-0.2-2.4,0.2-3.6c0.4-1,1.5-0.9,2.4-0.9c0.8,0,1.5-0.7,1.5-1.5s-0.7-1.5-1.5-1.5
			c-1.9,0-3.8,0.3-4.9,2.1s-1,4.2-0.7,6.2S23.6,99.6,23.3,97.8z"/>
		<path class="st2" d="M66.2,92.7c1.3,0,1.5,0.6,1.6,1.8s0.1,2.1,0.2,3.2c0.1,1.9,3.1,1.9,3,0s0.1-3.8-0.6-5.5s-2.3-2.4-4.2-2.5
			S64.3,92.7,66.2,92.7z"/>
		<path class="st2" d="M32.3,133.4c5.1,1.7,11.3,1.1,16.5,0.9c3.5-0.1,10,0.6,12.6-2.6c2.2-2.7,1.4-7.9,0.5-11
			c-1.1-3.8-3.4-5.3-7.3-5.9c-5.4-0.7-10.9-0.7-16.3-0.2c-3.2,0.2-7.5,0.1-9.4,3.1c-2.7,4.2-1.3,12.8,3,15.4c1.6,1,3.2-1.6,1.5-2.6
			c-3.2-1.9-3.8-9.2-1.1-11.5c3.7-3.1,13.9-1.9,18.5-1.6s8,1.5,8.7,6.4c0.7,5.1-3.3,7-7.9,7.2c-5.8,0.3-13,1.1-18.6-0.7
			C31.2,129.9,30.5,132.8,32.3,133.4z"/>
		<path class="st2" d="M25.8,147.2c0,5.8,0,11.6,0.2,17.3c0.1,3.1-0.7,11.1,2.3,13.3c1,0.7,2.4,0.1,3.3,0.6c1.5,0.8,2.2,4.7,0.6,6
			c-0.6,0.5-2.9,0.1-4,0.9c-0.7,0.5-1.3,1.2-1.7,2c-1,2.2-1.4,7.8-0.2,9.9c1.4,2.4,4.7,2,7.1,1.8c1.9-0.2,1.9-3.2,0-3
			c-2.5,0.2-4.5,0.3-4.4-2.7s-0.3-5.7,3.2-6c1.8-0.1,2.7-0.1,3.3-1.9s0.9-6.2,0-8.2c-1.2-2.6-2.4-1.1-4.6-1.8
			c-2.6-0.9-1.9-11.4-2-14.1c-0.1-4.7-0.2-9.4-0.1-14.2c0-0.8-0.7-1.5-1.5-1.5C26.4,145.6,25.8,146.3,25.8,147.2z"/>
		<path class="st3" d="M75.2,28.6"/>
		<path class="st2" d="M41.9,160.5c0.2,2.1-0.2,4.5,1.9,5.6c2.4,1.4,7.7,0.3,10.4,0.2c4.6-0.2,13.1,1.3,14-4.7
			c1-6.3-4.8-6.1-9.5-6.1s-15.1-1.4-16.7,4.8c-0.2,0.8,0.2,1.6,1,1.9s1.6-0.2,1.9-1.1c0.8-2.9,9.8-2.5,12-2.5c1.7-0.2,3.4-0.2,5.1,0
			c2.3,0.5,4.9,2,2,3.8c-2.3,1.4-8.1,0.9-10.7,1c-1.8,0.1-3.5,0.1-5.3,0.1c-1.1,0-2,0.2-2.5-0.4c-0.8-0.8,0-2-0.8-2.7
			c-0.8-0.5-1.8-0.5-2.6-0.1c0,0.1,0.2,0.2,0.5,0.3C42.4,160.5,42.1,160.5,41.9,160.5z"/>
	</g>
	<path class="st2" d="M46.6,151.9"/>
</g>
</svg>
