<svg id="Layer_1" data-name="Layer 1" xmlns="http://www.w3.org/2000/svg" viewBox="0 0 51.78 181.64"><defs><style>.cls-1,.cls-3{fill:none;stroke-miterlimit:10;}.cls-1{stroke:#231f20;stroke-width:0.75px;}.cls-2{fill:#009a84;}.cls-3{stroke:#a2354a;}</style></defs><title>ssteal</title><path class="cls-1" d="M94.3,68.7" transform="translate(-68.22 0.23)"/><path class="cls-2" d="M69.9,10.6a54.77,54.77,0,0,1,.5,9.9c-.1,1.9,2.9,1.9,3,0a64,64,0,0,0-.6-10.7C72.5,7.9,69.6,8.7,69.9,10.6Z" transform="translate(-68.22 0.23)"/><path class="cls-2" d="M79.6,3c0,4.9.2,9.8.1,14.6-.2,5.8-2.7,8.5-5.9,13.1-4.7,6.8-2.6,15.1-3.2,22.8-.1,1.9,2.9,1.9,3,0,.3-4.4-.2-8.7.1-13.1.4-5.8,3.9-8.7,6.7-13.2,4.1-6.7,2.3-16.7,2.2-24.1a1.54,1.54,0,0,0-1.5-1.5A1.45,1.45,0,0,0,79.6,3Z" transform="translate(-68.22 0.23)"/><path class="cls-2" d="M79.4,36.5c.2,5.6.2,11.2.1,16.8a1.5,1.5,0,0,0,3,0c.1-5.6,0-11.2-.1-16.8C82.3,34.6,79.3,34.6,79.4,36.5Z" transform="translate(-68.22 0.23)"/><path class="cls-2" d="M92.1,12a113.34,113.34,0,0,1,21-.2c1.9.1,1.9-2.9,0-3a113.34,113.34,0,0,0-21,.2C90.2,9.2,90.2,12.2,92.1,12Z" transform="translate(-68.22 0.23)"/><path class="cls-2" d="M92,26.9l20.5-.4a1.5,1.5,0,0,0,0-3L92,23.9A1.5,1.5,0,0,0,92,26.9Z" transform="translate(-68.22 0.23)"/><path class="cls-2" d="M91.7,33.7c4.7-.3,9.3-.6,14-.7,1.7,0,5.1-.7,5.8.6s0,5.8,0,7.2c-.1,2.1-.2,4.2-.5,6.4-.1,1.3.1,2.5-1.1,3.3-.6.4-2.6.1-3.3.1L91.7,51c-1.9.1-1.9,3.1,0,3l11.5-.4c2.4-.1,6.2.5,8.5-.6,3.3-1.7,2.6-8.4,2.7-11.5s1.7-10.1-2-11.5c-2.3-.9-6.8,0-9.2.1-3.8.1-7.7.3-11.5.6-1.9.2-1.9,3.2,0,3Z" transform="translate(-68.22 0.23)"/><path class="cls-2" d="M92.1,40.7a174,174,0,0,1,19.1-.5,1.5,1.5,0,0,0,0-3,173.38,173.38,0,0,0-19.1.5C90.2,37.8,90.2,40.8,92.1,40.7Z" transform="translate(-68.22 0.23)"/><path class="cls-2" d="M92,47h19a1.5,1.5,0,0,0,0-3H92a1.5,1.5,0,0,0,0,3Z" transform="translate(-68.22 0.23)"/><path class="cls-2" d="M101.2,18.2l.1,13.3a1.5,1.5,0,0,0,3,0l-.1-13.3a1.5,1.5,0,1,0-3,0Z" transform="translate(-68.22 0.23)"/><path class="cls-2" d="M71,151.2c3.5.2,8.5,1.1,11.7-.6,2.3-1.3,2.5-3.7,2.6-6.1.1-2.6.6-7.1-1.4-9.2-1.7-1.8-4.8-1.3-7.1-1-2.7.3-6,.7-7.3,3.5-1.6,3.3-.9,8.6-1.1,12.2-.4,9.6,0,19.5-.1,29.1a1.5,1.5,0,0,0,3,0c.1-10-.4-20.1.1-30.1.1-2.4-.3-5.6.4-7.9.9-3.2,6.5-5.7,9.4-3.6,2,1.5,1.3,9-.7,10.6-1.6,1.3-7.4.2-9.6.1C69.1,148.1,69.1,151.1,71,151.2Z" transform="translate(-68.22 0.23)"/><path class="cls-2" d="M90.2,135.1l27.7-.9c1.9-.1,1.9-3.1,0-3l-27.7.9C88.3,132.2,88.3,135.2,90.2,135.1Z" transform="translate(-68.22 0.23)"/><path class="cls-2" d="M102.7,129.7a6.16,6.16,0,0,1,.1,2.7,1.58,1.58,0,0,0,1,1.9,1.43,1.43,0,0,0,1.8-1,12.43,12.43,0,0,0-.1-4.3,1.44,1.44,0,1,0-2.8.7Z" transform="translate(-68.22 0.23)"/><path class="cls-2" d="M92.1,180c-.2-5.6-.3-11.2,0-16.7.1-2.4-.4-7.2,1.9-8.6,1.8-1,6.9-.4,8.8-.5a67.72,67.72,0,0,1,7.8-.2c4.8.4,5,3.3,5.1,7.4l.7,17.9c.1,1.9,3.1,1.9,3,0l-.4-13.2c-.1-3.3.4-7.3-.6-10.5-1.7-5.6-9.1-4.7-13.6-4.5-3.8.2-9.2-.5-12.8.7-1.3.4-1.5.7-1.9,1.9-1.2,3.5-.8,8.6-.9,12.2-.2,4.6-.1,9.3.1,14-.1,2,2.9,2,2.8.1Z" transform="translate(-68.22 0.23)"/><path class="cls-2" d="M102.8,153.8c0,1.6,0,3.3-.1,4.9,0,1.9,3,1.8,3-.1v-5.1a1.49,1.49,0,0,0-1.6-1.5A1.59,1.59,0,0,0,102.8,153.8Z" transform="translate(-68.22 0.23)"/><path class="cls-2" d="M99.4,179.8V168.7c0-1.4-.4-3.9.2-5.3.9-2.2,2.8-1.7,4.7-1.8,2.3-.1,3.9-.9,5.1,1.9.6,1.3.3,3.7.3,5.2q.3,5.55.3,11.1a1.5,1.5,0,0,0,3,0c0-5.7.3-11.9-.7-17.5-.9-4.4-4.2-3.9-8-3.7-3.4.2-6.6-.5-7.5,3.3-1.3,5.5-.3,12.2-.3,17.8a1.54,1.54,0,0,0,1.5,1.5,1.31,1.31,0,0,0,1.4-1.4Z" transform="translate(-68.22 0.23)"/><path class="cls-2" d="M103.2,167.4v12.3a1.5,1.5,0,0,0,3,0V167.4a1.5,1.5,0,0,0-3,0Z" transform="translate(-68.22 0.23)"/><path class="cls-2" d="M79.9,69.8c11.8-.4,23.6-.5,35.4-.4a1.5,1.5,0,0,0,0-3c-11.8-.1-23.6,0-35.4.4C77.9,66.9,77.9,69.9,79.9,69.8Z" transform="translate(-68.22 0.23)"/><path class="cls-2" d="M74.2,75.4c13.7-.7,27.4-.9,41.1-.7a1.5,1.5,0,0,0,0-3c-13.7-.2-27.4,0-41.1.7C72.3,72.5,72.3,75.5,74.2,75.4Z" transform="translate(-68.22 0.23)"/><path class="cls-2" d="M79.2,82q15.75-.9,31.5-.3c1.9.1,1.9-2.9,0-3-10.5-.4-21-.2-31.5.3C77.3,79.1,77.3,82.1,79.2,82Z" transform="translate(-68.22 0.23)"/><path class="cls-2" d="M90.8,80.3c-.8,2.2-.7,2.2-3.1,2.8a38.66,38.66,0,0,1-4.8.3l-11.3.8c-1.9.1-1.9,3.1,0,3,5.8-.4,12-.2,17.8-1.2,3.2-.5,3.3-2.1,4.4-4.8C94.4,79.3,91.5,78.6,90.8,80.3Z" transform="translate(-68.22 0.23)"/><path class="cls-2" d="M96.2,80.8c.2,3.1.6,5.2,3.9,5.5,5.8.4,11.6.2,17.4.3a1.5,1.5,0,0,0,0-3l-9.8-.2-4.5-.1c-2.3,0-3.8.2-4-2.5-.2-1.9-3.2-1.9-3,0Z" transform="translate(-68.22 0.23)"/><path class="cls-2" d="M72.7,67.1a12.81,12.81,0,0,1,4.2,1.7c1.2.9,1.2,2.4,1.2,3.8.1,1.9,3.1,1.9,3,0s-.3-4.1-1.8-5.6a13.07,13.07,0,0,0-5.8-2.8,1.5,1.5,0,0,0-.8,2.9Z" transform="translate(-68.22 0.23)"/><path class="cls-2" d="M73,115.4c.1-5.5,0-11.1.2-16.6.1-2.2-.3-2.5,1.9-3.7,1.9-1.1,3.2-1,5.3-1.1l9-.3c1.9-.1,1.9-3.1,0-3-4.5.2-9.5-.2-14,.5A5.7,5.7,0,0,0,71,93.8c-1.2,2.1-.8,5.3-.8,7.6l-.2,14a1.54,1.54,0,0,0,1.5,1.5,1.47,1.47,0,0,0,1.5-1.5Z" transform="translate(-68.22 0.23)"/><path class="cls-2" d="M118.4,115.5c.1-4.9.1-9.7.2-14.6,0-2.3.9-6.5-.4-8.4-1-1.6-2.4-1.4-4.2-1.5a138.34,138.34,0,0,0-14.4-.1c-1.9.1-1.9,3.1,0,3,3-.1,6-.2,9-.1,3.7.1,6.5-.6,7,3.6.8,5.8-.2,12.3-.3,18.1a1.54,1.54,0,0,0,1.5,1.5,1.63,1.63,0,0,0,1.6-1.5Z" transform="translate(-68.22 0.23)"/><path class="cls-2" d="M93.5,18.2c4.1,1.5,9.3.9,13.5.5,2.6-.2,5.7-.3,6.9-3.1,1.3-3,.8-7.6,0-10.6S111.6.8,108.7.2A37.23,37.23,0,0,0,95.8.5c-2.6.5-4.3,1.2-5.1,3.7C89.6,7.8,89.6,15,92.9,17.7c1.5,1.2,3.6-.9,2.1-2.1-2-1.6-1.9-5.7-1.8-8s.3-3.5,2.7-4.1a29.2,29.2,0,0,1,9.3-.6c2.8.1,5.4.3,6,3.5.4,2.2,1.2,6.6-.6,8.2s-5.5,1.4-7.8,1.4c-2.7.1-5.9.3-8.5-.7C92.5,14.7,91.7,17.6,93.5,18.2Z" transform="translate(-68.22 0.23)"/><path class="cls-2" d="M79.5,105.8c9.7-.3,19.5-.5,29.2-.6a1.5,1.5,0,0,0,0-3c-9.7.1-19.5.3-29.2.6C77.6,102.9,77.6,105.9,79.5,105.8Z" transform="translate(-68.22 0.23)"/><path class="cls-2" d="M79.8,111.3c9.8-.4,19.6-.5,29.3-.3a1.5,1.5,0,0,0,0-3q-14.7-.3-29.4.3C77.8,108.4,77.8,111.4,79.8,111.3Z" transform="translate(-68.22 0.23)"/><path class="cls-2" d="M72.3,79.8a6.33,6.33,0,0,1,.2-3.6c.4-1,1.5-.9,2.4-.9a1.5,1.5,0,0,0,0-3c-1.9,0-3.8.3-4.9,2.1s-1,4.2-.7,6.2S72.6,81.6,72.3,79.8Z" transform="translate(-68.22 0.23)"/><path class="cls-2" d="M115.2,74.7c1.3,0,1.5.6,1.6,1.8s.1,2.1.2,3.2c.1,1.9,3.1,1.9,3,0s.1-3.8-.6-5.5-2.3-2.4-4.2-2.5-1.9,3,0,3Z" transform="translate(-68.22 0.23)"/><path class="cls-2" d="M81.3,115.4c5.1,1.7,11.3,1.1,16.5.9,3.5-.1,10,.6,12.6-2.6,2.2-2.7,1.4-7.9.5-11-1.1-3.8-3.4-5.3-7.3-5.9a74,74,0,0,0-16.3-.2c-3.2.2-7.5.1-9.4,3.1-2.7,4.2-1.3,12.8,3,15.4,1.6,1,3.2-1.6,1.5-2.6-3.2-1.9-3.8-9.2-1.1-11.5,3.7-3.1,13.9-1.9,18.5-1.6s8,1.5,8.7,6.4c.7,5.1-3.3,7-7.9,7.2-5.8.3-13,1.1-18.6-.7C80.2,111.9,79.5,114.8,81.3,115.4Z" transform="translate(-68.22 0.23)"/><path class="cls-2" d="M74.8,129.2c0,5.8,0,11.6.2,17.3.1,3.1-.7,11.1,2.3,13.3,1,.7,2.4.1,3.3.6,1.5.8,2.2,4.7.6,6-.6.5-2.9.1-4,.9a4.7,4.7,0,0,0-1.7,2c-1,2.2-1.4,7.8-.2,9.9,1.4,2.4,4.7,2,7.1,1.8,1.9-.2,1.9-3.2,0-3-2.5.2-4.5.3-4.4-2.7s-.3-5.7,3.2-6c1.8-.1,2.7-.1,3.3-1.9s.9-6.2,0-8.2c-1.2-2.6-2.4-1.1-4.6-1.8-2.6-.9-1.9-11.4-2-14.1-.1-4.7-.2-9.4-.1-14.2a1.54,1.54,0,0,0-1.5-1.5A1.56,1.56,0,0,0,74.8,129.2Z" transform="translate(-68.22 0.23)"/><path class="cls-3" d="M124.2,10.6" transform="translate(-68.22 0.23)"/><path class="cls-2" d="M90.9,142.5c.2,2.1-.2,4.5,1.9,5.6,2.4,1.4,7.7.3,10.4.2,4.6-.2,13.1,1.3,14-4.7,1-6.3-4.8-6.1-9.5-6.1s-15.1-1.4-16.7,4.8a1.5,1.5,0,0,0,2.9.8c.8-2.9,9.8-2.5,12-2.5a21.75,21.75,0,0,1,5.1,0c2.3.5,4.9,2,2,3.8-2.3,1.4-8.1.9-10.7,1-1.8.1-3.5.1-5.3.1-1.1,0-2,.2-2.5-.4-.8-.8,0-2-.8-2.7a2.65,2.65,0,0,0-2.6-.1c0,.1.2.2.5.3A2,2,0,0,0,90.9,142.5Z" transform="translate(-68.22 0.23)"/></svg>