<?xml version="1.0" encoding="UTF-8"?>
<svg id="Layer_1" xmlns="http://www.w3.org/2000/svg" xmlns:xlink="http://www.w3.org/1999/xlink" version="1.1" viewBox="0 0 700 700">
  <!-- Generator: Adobe Illustrator 29.1.0, SVG Export Plug-In . SVG Version: 2.1.0 Build 142)  -->
  <defs>
    <style>
      .st0 {
        fill: url(#linear-gradient2);
      }

      .st1 {
        fill: url(#linear-gradient1);
      }

      .st2 {
        fill: url(#linear-gradient);
      }
    </style>
    <linearGradient id="linear-gradient" x1="-311.3" y1="1085" x2="-311.3" y2="1057" gradientTransform="translate(8376 27126) scale(25 -25)" gradientUnits="userSpaceOnUse">
      <stop offset="0" stop-color="#76c893"/>
      <stop offset="1" stop-color="#62c083"/>
    </linearGradient>
    <linearGradient id="linear-gradient1" x1="-314.1" y1="1081.6" x2="-334.1" y2="1064.8" gradientTransform="translate(8376 27126) scale(25 -25)" gradientUnits="userSpaceOnUse">
      <stop offset="0" stop-color="#3c955b"/>
      <stop offset=".3" stop-color="#41a464"/>
      <stop offset=".4" stop-color="#42a364"/>
      <stop offset=".6" stop-color="#3d995d"/>
      <stop offset=".9" stop-color="#398e57"/>
      <stop offset="1" stop-color="#41a464"/>
    </linearGradient>
    <linearGradient id="linear-gradient2" x1="-334" y1="1076.9" x2="-314.1" y2="1060.4" gradientTransform="translate(8376 27126) scale(25 -25)" gradientUnits="userSpaceOnUse">
      <stop offset="0" stop-color="#62c083"/>
      <stop offset="1" stop-color="#3c955b"/>
    </linearGradient>
  </defs>
  <path class="st2" d="M525,27.9c0-22-24.6-22-35.5-19.2,15.3-12.1,33.3-9.2,39.6-5.5l147.8,72.5c14.1,6.9,23,21.3,23,37v476.9c0,16-9.2,30.5-23.5,37.3l-139.1,65.8c-9.6,4.1-30.3,14.3-47.8,0,21.9,4.1,33.7-11.4,35.5-22V27.9Z"/>
  <path class="st1" d="M491.3,8.3c11.6-2.3,33.8-1.2,33.8,19.6v164.1L76.8,531.1c-7.8,5.9-18.9,4.9-25.5-2.3l-46.2-50c-7.2-7.8-6.7-20.1,1.1-27.3L489.5,8.7l1.8-.4Z"/>
  <path class="st0" d="M525,509.3L76.8,170.2c-7.8-5.9-18.9-4.9-25.5,2.3L5.1,222.5c-7.2,7.8-6.7,20.1,1.1,27.3l483.3,442.9c21.9,4.1,33.7-11.4,35.5-22v-161.4Z"/>
</svg>